<svg width="260" height="95" viewBox="0 0 260 95" fill="none" xmlns="http://www.w3.org/2000/svg">
<rect x="0.5" y="0.5" width="259" height="93.9979" rx="9.5" fill="#F8F8F8"/>
<rect x="0.5" y="0.5" width="259" height="93.9979" rx="9.5" stroke="#E5E7EB"/>
<path fill-rule="evenodd" clip-rule="evenodd" d="M72.2336 31.4562C72.2883 31.4865 72.346 31.511 72.4058 31.5293C75.5266 33.258 73.8564 35.7779 71.6 37.2579L71.5707 37.2725H71.5561C72.8302 33.9468 61.418 33.1117 59.4844 29.9917C59.499 30.021 59.5136 30.0356 59.5283 30.0649C59.4697 28.7167 60.2756 27.6035 61.6229 26.666C59.1908 29.8893 68.4241 29.9039 72.2293 31.457" fill="url(#paint0_linear_4136_756)"/>
<path fill-rule="evenodd" clip-rule="evenodd" d="M72.3983 31.5332C79.3132 33.54 81.9941 39.1368 74.0246 41.5981C68.3426 43.3415 59.1696 42.5796 58.5101 47.9999C55.4633 43.6953 59.8437 41.5835 65.1908 39.767C72.9846 38.0529 76.5006 33.8034 72.3983 31.5332Z" fill="url(#paint1_linear_4136_756)"/>
<path fill-rule="evenodd" clip-rule="evenodd" d="M76.3952 16.0034C82.5335 15.9742 81.4057 21.6588 76.7757 22.2442C70.8277 23.2842 59.2837 25.1592 59.5178 30.0785C54.1561 23.1051 70.813 16.2178 76.3917 16" fill="url(#paint2_linear_4136_756)"/>
<path d="M98.2267 35.5716C98.221 36.0837 98.1112 36.5894 97.904 37.0578C97.6968 37.5262 97.3965 37.9476 97.0214 38.2964C96.5341 38.7523 95.9473 39.0883 95.3074 39.2778C94.6996 39.4631 94.0676 39.5569 93.4323 39.5559H93.4177C92.6912 39.5621 91.9686 39.4484 91.2792 39.2192C90.5596 38.9872 89.9063 38.5853 89.3748 38.0476C88.6238 37.2928 88.2025 36.2713 88.2031 35.2066V35.0748C88.2056 34.9884 88.2257 34.9034 88.2622 34.825C88.2986 34.7467 88.3506 34.6765 88.4151 34.6189C88.4795 34.5613 88.5551 34.5175 88.637 34.49C88.719 34.4626 88.8057 34.4521 88.8918 34.4593C89.0668 34.4704 89.2309 34.5479 89.3507 34.6759C89.4705 34.8039 89.537 34.9727 89.5367 35.148V35.2341C89.5426 35.9634 89.8315 36.6619 90.3425 37.1823C90.7424 37.5735 91.2224 37.8733 91.7492 38.0613C92.3003 38.2519 92.8802 38.346 93.4633 38.3394H93.4779C93.9746 38.3486 94.4693 38.2744 94.9415 38.1199C95.4002 37.9832 95.8212 37.7425 96.1717 37.4165C96.6633 36.9381 96.9474 36.2858 96.9629 35.6V35.5561C96.961 35.3832 97.0277 35.2167 97.1486 35.0931C97.2694 34.9695 97.4344 34.899 97.6073 34.8971C97.7801 34.8951 97.9467 34.9619 98.0702 35.0828C98.1938 35.2036 98.2644 35.3686 98.2663 35.5414V35.6L98.2267 35.5716ZM95.5898 26.5914C94.971 26.162 94.2336 25.9366 93.4805 25.9466H93.4366C93.0427 25.9418 92.6511 26.0062 92.2795 26.1368C91.9217 26.2595 91.5927 26.454 91.3127 26.7085C90.9738 27.0497 90.7706 27.5026 90.7411 27.9826C90.7386 28.069 90.7185 28.154 90.682 28.2324C90.6456 28.3108 90.5936 28.3809 90.5291 28.4385C90.4647 28.4961 90.3891 28.54 90.3072 28.5675C90.2252 28.5949 90.1385 28.6054 90.0524 28.5982C89.9664 28.5945 89.882 28.5736 89.8041 28.5367C89.7263 28.4999 89.6567 28.4478 89.5993 28.3836C89.542 28.3195 89.498 28.2444 89.4701 28.163C89.4422 28.0815 89.4309 27.9953 89.4368 27.9094C89.4793 27.1179 89.8072 26.3686 90.3597 25.8002C90.767 25.3866 91.2631 25.071 91.8103 24.8773C92.3104 24.7142 92.834 24.635 93.36 24.6431H93.4039C94.4268 24.6304 95.4272 24.9434 96.2604 25.5368C96.709 25.8734 97.0797 26.3028 97.3472 26.7958C97.6146 27.2888 97.7725 27.8337 97.81 28.3933C97.8197 28.5661 97.7604 28.7358 97.645 28.8648C97.5297 28.9939 97.3678 29.0719 97.1949 29.0816C97.0221 29.0913 96.8525 29.0319 96.7234 28.9166C96.5943 28.8012 96.5163 28.6393 96.5066 28.4665C96.4808 28.0928 96.3744 27.7292 96.1949 27.4005C96.0154 27.0718 95.767 26.7858 95.4667 26.5621H95.5837L95.5898 26.5914ZM91.5753 29.9756C92.1578 30.5312 92.8591 30.9469 93.626 31.1913C94.6989 31.4774 95.725 31.9164 96.6728 32.4947C96.8945 32.6462 97.1006 32.8192 97.2883 33.0112C97.3972 33.1361 97.4527 33.2988 97.443 33.4642C97.4333 33.6296 97.3591 33.7846 97.2363 33.8958C97.1135 34.0071 96.952 34.0658 96.7864 34.0593C96.6208 34.0528 96.4644 33.9815 96.3508 33.8609C96.2159 33.7312 96.0739 33.6091 95.9255 33.4951C95.0574 33.0101 94.1319 32.6361 93.1706 32.3819C92.219 32.0701 91.3518 31.5438 90.6361 30.8435C90.4168 30.6123 90.225 30.3567 90.0644 30.0815C90.0162 30.0114 89.9826 29.9322 89.9655 29.8488C89.9485 29.7654 89.9483 29.6794 89.9651 29.596C89.9819 29.5125 90.0152 29.4332 90.0632 29.3629C90.1112 29.2926 90.1727 29.2325 90.2443 29.1864C90.3159 29.1403 90.396 29.1091 90.4798 29.0945C90.5637 29.0799 90.6497 29.0823 90.7326 29.1016C90.8156 29.1208 90.8938 29.1565 90.9627 29.2065C91.0316 29.2565 91.0897 29.3199 91.1337 29.3928C91.2681 29.5918 91.4202 29.7782 91.5882 29.9498V29.9791L91.5753 29.9756Z" fill="#00579F"/>
<path d="M102.082 39.5715C101.997 39.5733 101.913 39.5578 101.834 39.526C101.755 39.4942 101.683 39.4468 101.623 39.3866C101.562 39.3264 101.515 39.2546 101.483 39.1755C101.451 39.0965 101.436 39.0119 101.438 38.9267V25.2726C101.438 25.1014 101.506 24.9372 101.627 24.8161C101.748 24.695 101.912 24.627 102.083 24.627C102.255 24.627 102.419 24.695 102.54 24.8161C102.661 24.9372 102.729 25.1014 102.729 25.2726V38.9267C102.73 39.0117 102.713 39.0959 102.681 39.1746C102.649 39.2532 102.601 39.3245 102.541 39.3846C102.481 39.4446 102.409 39.492 102.33 39.5241C102.252 39.5562 102.167 39.5723 102.082 39.5715ZM103.632 28.2471C103.784 28.1757 103.958 28.1664 104.116 28.221C104.275 28.2757 104.406 28.39 104.482 28.5398L109.609 38.6779C109.683 38.8294 109.694 39.004 109.639 39.1634C109.584 39.3227 109.468 39.4538 109.317 39.5276C109.165 39.6015 108.991 39.6121 108.831 39.5572C108.672 39.5023 108.541 39.3864 108.467 39.2349L103.339 29.0968C103.301 29.0218 103.278 28.9397 103.272 28.8556C103.266 28.7715 103.278 28.687 103.305 28.6074C103.333 28.5277 103.377 28.4545 103.433 28.3921C103.49 28.3298 103.559 28.2795 103.636 28.2445L103.632 28.2471ZM116.554 24.7019C116.63 24.7404 116.699 24.794 116.754 24.8594C116.81 24.9248 116.852 25.0007 116.878 25.0826C116.904 25.1646 116.913 25.2509 116.905 25.3365C116.897 25.422 116.872 25.5051 116.832 25.5808L111.132 36.554C111.093 36.63 111.039 36.6975 110.973 36.7525C110.907 36.8075 110.832 36.8491 110.75 36.8749C110.668 36.9006 110.582 36.91 110.497 36.9025C110.412 36.895 110.328 36.8708 110.253 36.8312C110.177 36.7917 110.109 36.7375 110.054 36.6719C109.999 36.6063 109.957 36.5304 109.932 36.4487C109.906 36.367 109.897 36.2811 109.904 36.1957C109.912 36.1104 109.936 36.0274 109.975 35.9514L115.675 24.9782C115.756 24.8259 115.894 24.7116 116.059 24.6599C116.224 24.6082 116.402 24.6233 116.556 24.7019H116.554ZM116.261 39.5715C116.176 39.5733 116.091 39.5578 116.012 39.526C115.933 39.4942 115.861 39.4468 115.801 39.3866C115.741 39.3264 115.693 39.2546 115.661 39.1755C115.63 39.0965 115.614 39.0119 115.616 38.9267V29.4042C115.616 29.2329 115.684 29.0687 115.805 28.9476C115.926 28.8265 116.09 28.7585 116.262 28.7585C116.433 28.7585 116.597 28.8265 116.718 28.9476C116.839 29.0687 116.907 29.2329 116.907 29.4042V38.9267C116.91 39.0121 116.896 39.0972 116.864 39.1768C116.833 39.2563 116.786 39.3286 116.725 39.389C116.665 39.4495 116.593 39.4969 116.513 39.5283C116.434 39.5597 116.349 39.5744 116.263 39.5715H116.261Z" fill="#00579F"/>
<path d="M124.715 27.3084C124.87 27.3787 124.991 27.5075 125.052 27.6668C125.112 27.826 125.107 28.0027 125.037 28.1581L120.291 39.2191C120.221 39.3745 120.092 39.4957 119.933 39.5561C119.773 39.6165 119.597 39.6111 119.441 39.5411C119.286 39.4711 119.165 39.3423 119.104 39.1829C119.044 39.0236 119.049 38.8468 119.119 38.6914L123.854 27.645C123.925 27.4871 124.055 27.3633 124.216 27.3003C124.377 27.2373 124.556 27.2403 124.715 27.3084ZM127.894 34.1208C127.896 34.206 127.881 34.2906 127.849 34.3697C127.817 34.4487 127.77 34.5204 127.71 34.5807C127.649 34.6409 127.577 34.6884 127.498 34.7201C127.419 34.7519 127.335 34.7674 127.25 34.7656H123.836C123.665 34.7656 123.501 34.6976 123.38 34.5765C123.258 34.4554 123.19 34.2912 123.19 34.12C123.19 33.9487 123.258 33.7845 123.38 33.6634C123.501 33.5423 123.665 33.4743 123.836 33.4743H127.25C127.335 33.4725 127.419 33.488 127.498 33.5197C127.577 33.5514 127.649 33.5988 127.709 33.6589C127.769 33.7191 127.817 33.7908 127.849 33.8697C127.881 33.9486 127.896 34.0331 127.894 34.1182V34.1208ZM131.689 39.5446C131.533 39.6141 131.356 39.6193 131.197 39.559C131.038 39.4987 130.909 39.3777 130.839 39.2226L124.993 25.5685C124.923 25.4131 124.918 25.2363 124.978 25.077C125.039 24.9176 125.16 24.7888 125.315 24.7188C125.471 24.6488 125.647 24.6434 125.807 24.7038C125.966 24.7642 126.095 24.8854 126.165 25.0408L132.01 38.6802C132.078 38.8377 132.082 39.0152 132.022 39.1757C131.962 39.3362 131.843 39.4674 131.689 39.542V39.5446Z" fill="#00579F"/>
<path d="M138.28 24.6565C140.668 24.6565 142.265 25.9599 142.265 28.5384C142.265 31.1022 140.639 32.3324 138.324 32.3324H135.04C134.869 32.3324 134.705 32.2644 134.584 32.1433C134.463 32.0222 134.395 31.858 134.395 31.6867C134.395 31.5155 134.463 31.3512 134.584 31.2302C134.705 31.1091 134.869 31.041 135.04 31.041H138.322C140.461 31.041 140.991 29.8254 140.991 28.5065C140.991 27.012 140.332 25.8988 138.281 25.8988H134.911C134.74 25.8988 134.576 25.8308 134.455 25.7097C134.334 25.5886 134.266 25.4244 134.266 25.2531C134.266 25.0819 134.334 24.9177 134.455 24.7966C134.576 24.6755 134.74 24.6074 134.911 24.6074H138.281L138.28 24.6565ZM136.042 32.9635C136.159 32.8452 136.319 32.7776 136.486 32.7748C136.652 32.7721 136.814 32.8345 136.935 32.9488L142.781 38.5008C142.841 38.5585 142.888 38.6275 142.921 38.7036C142.954 38.7797 142.972 38.8616 142.973 38.9446C142.975 39.0276 142.96 39.11 142.929 39.1872C142.899 39.2644 142.853 39.3348 142.796 39.3945C142.738 39.4541 142.669 39.5018 142.593 39.5348C142.517 39.5678 142.435 39.5855 142.352 39.5868C142.269 39.5882 142.186 39.5732 142.109 39.5427C142.032 39.5122 141.962 39.4668 141.902 39.4091L136.056 33.8571C135.938 33.7398 135.869 33.5808 135.866 33.4139C135.863 33.2471 135.924 33.0855 136.038 32.9635H136.042Z" fill="#00579F"/>
<path d="M156.491 25.2876C156.493 25.3727 156.478 25.4574 156.446 25.5364C156.414 25.6154 156.367 25.6872 156.306 25.7474C156.246 25.8077 156.174 25.8551 156.095 25.8869C156.016 25.9187 155.932 25.9341 155.846 25.9324H145.841C145.67 25.9324 145.505 25.8644 145.384 25.7433C145.263 25.6222 145.195 25.4579 145.195 25.2867C145.195 25.1155 145.263 24.9512 145.384 24.8301C145.505 24.709 145.67 24.641 145.841 24.641H155.846C155.932 24.638 156.018 24.6527 156.097 24.6841C156.177 24.7155 156.249 24.7631 156.31 24.8238C156.37 24.8844 156.418 24.9569 156.449 25.0367C156.48 25.1165 156.495 25.2019 156.491 25.2876ZM150.851 26.5617C150.936 26.5599 151.02 26.5754 151.099 26.6072C151.179 26.639 151.25 26.6864 151.311 26.7467C151.371 26.8069 151.418 26.8787 151.45 26.9577C151.482 27.0367 151.497 27.1214 151.495 27.2065V38.9408C151.495 39.112 151.427 39.2762 151.306 39.3973C151.185 39.5184 151.021 39.5865 150.85 39.5865C150.679 39.5865 150.514 39.5184 150.393 39.3973C150.272 39.2762 150.204 39.112 150.204 38.9408V27.2065C150.202 27.1212 150.218 27.0364 150.25 26.9573C150.282 26.8781 150.329 26.8063 150.39 26.746C150.45 26.6858 150.522 26.6384 150.601 26.6067C150.68 26.575 150.765 26.5597 150.851 26.5617Z" fill="#00579F"/>
<path d="M165.248 24.6427C165.333 24.641 165.418 24.6564 165.497 24.6882C165.576 24.72 165.648 24.7674 165.708 24.8276C165.768 24.8879 165.816 24.9597 165.847 25.0387C165.879 25.1177 165.895 25.2024 165.893 25.2875V38.9416C165.893 39.1128 165.825 39.2771 165.704 39.3982C165.583 39.5192 165.419 39.5873 165.247 39.5873C165.076 39.5873 164.912 39.5192 164.791 39.3982C164.67 39.2771 164.602 39.1128 164.602 38.9416V25.2875C164.601 25.2025 164.617 25.1183 164.65 25.0397C164.682 24.9611 164.73 24.8897 164.79 24.8297C164.85 24.7697 164.921 24.7222 165 24.6901C165.079 24.658 165.163 24.6419 165.248 24.6427ZM166.743 38.9407C166.741 38.8556 166.756 38.7709 166.788 38.6919C166.82 38.6129 166.867 38.5411 166.928 38.4809C166.988 38.4206 167.06 38.3732 167.139 38.3414C167.218 38.3096 167.302 38.2941 167.387 38.2959H173.804C173.975 38.2959 174.139 38.3639 174.26 38.485C174.381 38.6061 174.45 38.7703 174.45 38.9416C174.45 39.1128 174.381 39.2771 174.26 39.3982C174.139 39.5192 173.975 39.5873 173.804 39.5873H167.387C167.302 39.588 167.218 39.5717 167.139 39.5395C167.061 39.5072 166.989 39.4596 166.929 39.3994C166.869 39.3392 166.821 39.2676 166.789 39.1889C166.757 39.1101 166.742 39.0258 166.743 38.9407Z" fill="#00579F"/>
<path d="M177.162 24.6428C177.247 24.641 177.332 24.6564 177.411 24.6882C177.49 24.72 177.562 24.7675 177.622 24.8277C177.682 24.8879 177.73 24.9597 177.762 25.0387C177.793 25.1178 177.809 25.2024 177.807 25.2876V38.9416C177.807 39.1129 177.739 39.2771 177.618 39.3982C177.497 39.5193 177.333 39.5873 177.161 39.5873C176.99 39.5873 176.826 39.5193 176.705 39.3982C176.584 39.2771 176.516 39.1129 176.516 38.9416V25.2876C176.514 25.2023 176.53 25.1175 176.561 25.0383C176.593 24.9592 176.641 24.8873 176.701 24.8271C176.762 24.7668 176.834 24.7194 176.913 24.6877C176.992 24.6561 177.077 24.6408 177.162 24.6428Z" fill="#00579F"/>
<path d="M182.069 24.6425C182.154 24.6407 182.238 24.6562 182.317 24.688C182.396 24.7198 182.468 24.7672 182.528 24.8274C182.589 24.8877 182.636 24.9595 182.668 25.0385C182.7 25.1175 182.715 25.2021 182.713 25.2873V38.9414C182.713 39.1126 182.645 39.2768 182.524 39.3979C182.403 39.519 182.239 39.587 182.068 39.587C181.896 39.587 181.732 39.519 181.611 39.3979C181.49 39.2768 181.422 39.1126 181.422 38.9414V25.2873C181.42 25.202 181.436 25.1172 181.468 25.0381C181.5 24.9589 181.547 24.8871 181.608 24.8268C181.668 24.7665 181.74 24.7192 181.819 24.6875C181.898 24.6558 181.983 24.6405 182.069 24.6425ZM190.961 25.2873C190.963 25.3725 190.947 25.4571 190.915 25.5361C190.884 25.6152 190.836 25.687 190.776 25.7472C190.716 25.8074 190.644 25.8548 190.565 25.8866C190.486 25.9184 190.401 25.9339 190.316 25.9321H183.9C183.729 25.9321 183.564 25.8641 183.443 25.743C183.322 25.6219 183.254 25.4577 183.254 25.2864C183.254 25.1152 183.322 24.951 183.443 24.8299C183.564 24.7088 183.729 24.6408 183.9 24.6408H190.316C190.401 24.639 190.486 24.6545 190.565 24.6864C190.644 24.7183 190.716 24.7659 190.777 24.8263C190.837 24.8867 190.884 24.9587 190.916 25.038C190.948 25.1172 190.963 25.202 190.961 25.2873ZM183.255 31.6012C183.253 31.5161 183.269 31.4314 183.3 31.3524C183.332 31.2734 183.38 31.2016 183.44 31.1414C183.5 31.0811 183.572 31.0337 183.651 31.0019C183.73 30.9701 183.815 30.9547 183.9 30.9564H189.057C189.228 30.9564 189.392 31.0244 189.513 31.1455C189.634 31.2666 189.702 31.4308 189.702 31.6021C189.702 31.7733 189.634 31.9376 189.513 32.0587C189.392 32.1798 189.228 32.2478 189.057 32.2478H183.9C183.815 32.2484 183.73 32.232 183.652 32.1997C183.573 32.1674 183.502 32.1198 183.442 32.0596C183.382 31.9994 183.334 31.9279 183.302 31.8492C183.27 31.7705 183.254 31.6862 183.255 31.6012Z" fill="#00579F"/>
<path d="M194.375 38.9394C194.373 38.8543 194.389 38.7696 194.421 38.6906C194.452 38.6116 194.5 38.5398 194.56 38.4796C194.62 38.4193 194.692 38.3719 194.771 38.3401C194.85 38.3083 194.935 38.2928 195.02 38.2946H201.847C202.018 38.2946 202.182 38.3626 202.304 38.4837C202.425 38.6048 202.493 38.769 202.493 38.9403C202.493 39.1115 202.425 39.2758 202.304 39.3969C202.182 39.5179 202.018 39.586 201.847 39.586H195.02C194.935 39.5865 194.851 39.5702 194.772 39.5379C194.694 39.5056 194.622 39.4579 194.562 39.3978C194.502 39.3376 194.455 39.2661 194.423 39.1874C194.391 39.1087 194.374 39.0244 194.375 38.9394ZM202.462 25.2854C202.464 25.3705 202.448 25.4552 202.416 25.5342C202.384 25.6132 202.337 25.685 202.277 25.7452C202.217 25.8055 202.145 25.8529 202.066 25.8847C201.987 25.9165 201.902 25.9319 201.817 25.9302H195.048C194.877 25.9302 194.713 25.8622 194.592 25.7411C194.471 25.62 194.403 25.4557 194.403 25.2845C194.403 25.1132 194.471 24.949 194.592 24.8279C194.713 24.7068 194.877 24.6388 195.048 24.6388H201.817C201.902 24.637 201.987 24.6526 202.066 24.6845C202.146 24.7165 202.217 24.7642 202.278 24.8247C202.338 24.8852 202.385 24.9573 202.417 25.0366C202.449 25.1159 202.464 25.2008 202.462 25.2862V25.2854ZM194.419 31.5993C194.417 31.5141 194.433 31.4295 194.465 31.3505C194.496 31.2714 194.544 31.1997 194.604 31.1394C194.664 31.0792 194.736 31.0317 194.815 31C194.894 30.9682 194.979 30.9527 195.064 30.9545H200.574C200.745 30.9545 200.909 31.0225 201.03 31.1436C201.151 31.2647 201.219 31.4289 201.219 31.6001C201.219 31.7714 201.151 31.9356 201.03 32.0567C200.909 32.1778 200.745 32.2458 200.574 32.2458H195.064C194.979 32.2464 194.895 32.2301 194.816 32.1978C194.738 32.1656 194.666 32.118 194.606 32.0579C194.546 31.9979 194.499 31.9264 194.467 31.8478C194.435 31.7693 194.418 31.6842 194.419 31.5993Z" fill="#00579F"/>
<path d="M58.9826 63.726L57.8146 64.894L56.6306 63.726L57.7826 62.574L58.9826 63.726ZM62.3426 72.558C62.4492 72.558 62.5026 72.606 62.5026 72.702V73.838C62.5026 73.9447 62.4492 73.998 62.3426 73.998C60.7212 73.998 59.2546 73.806 57.9426 73.422C56.7799 73.7847 55.3079 73.9767 53.5266 73.998H53.5106H51.3186C50.0492 73.998 49.0786 73.7047 48.4066 73.118C47.7452 72.5314 47.4146 71.6674 47.4146 70.526C47.4146 69.8007 47.5319 68.8887 47.7666 67.79L48.9506 67.95C48.7799 68.8994 48.6946 69.63 48.6946 70.142C48.6946 71.7527 49.6759 72.558 51.6386 72.558H53.3346C54.4119 72.558 55.2492 72.526 55.8466 72.462C54.8546 71.726 54.3586 70.782 54.3586 69.63C54.3586 68.6594 54.6946 67.854 55.3666 67.214C56.0386 66.5634 56.8759 66.238 57.8786 66.238C58.9026 66.238 59.7452 66.5687 60.4066 67.23C61.0679 67.8807 61.3986 68.6807 61.3986 69.63C61.3986 70.7607 60.9079 71.694 59.9266 72.43C60.5559 72.5154 61.3612 72.558 62.3426 72.558ZM57.8306 67.582C57.2012 67.582 56.6839 67.79 56.2786 68.206C55.8839 68.6114 55.6866 69.134 55.6866 69.774C55.6866 70.35 55.8786 70.8674 56.2626 71.326C56.6572 71.774 57.1906 72.0994 57.8626 72.302C58.5559 72.0674 59.0999 71.726 59.4946 71.278C59.8892 70.83 60.0866 70.3287 60.0866 69.774C60.0866 69.134 59.8679 68.6114 59.4306 68.206C59.0039 67.79 58.4706 67.582 57.8306 67.582ZM62.2891 73.998C62.1824 73.998 62.1291 73.9447 62.1291 73.838L62.1451 72.702C62.1451 72.606 62.1984 72.558 62.3051 72.558H63.5211C64.8544 72.558 65.5211 71.8914 65.5211 70.558V66.27L66.8651 66.046V70.926C66.8651 71.9074 66.5824 72.6647 66.0171 73.198C65.4517 73.7314 64.6144 73.998 63.5051 73.998H62.2891ZM63.3131 77.566L62.1451 76.414L63.3131 75.262L64.4811 76.414L63.3131 77.566ZM65.8571 77.566L64.6731 76.414L65.8571 75.262L67.0251 76.414L65.8571 77.566ZM75.7697 62.526L77.1297 62.318V70.798C77.1297 72.9314 76.0044 73.998 73.7537 73.998H73.7377H68.4577L68.2017 72.558H71.9937L70.3937 64.75L71.7377 64.414L73.2737 72.558H73.7377H73.7537C75.0977 72.558 75.7697 71.8647 75.7697 70.478V62.526ZM88.7356 65.502L87.5676 66.654L86.3996 65.502L87.5676 64.35L88.7356 65.502ZM91.2796 65.502L90.1116 66.654L88.9276 65.502L90.1116 64.35L91.2796 65.502ZM93.2316 66.27L94.5916 66.046V70.926C94.5916 71.9074 94.3036 72.6647 93.7276 73.198C93.1622 73.7314 92.3249 73.998 91.2156 73.998H86.9436C85.6742 73.998 84.7036 73.7047 84.0316 73.118C83.3702 72.5314 83.0396 71.6674 83.0396 70.526C83.0396 69.7474 83.1516 68.8354 83.3756 67.79L84.5756 67.95C84.4049 68.8994 84.3196 69.63 84.3196 70.142C84.3196 71.7527 85.3009 72.558 87.2636 72.558H91.2156C92.5596 72.558 93.2316 71.8914 93.2316 70.558V66.27ZM95.2964 77.438L95.1684 76.27C97.0884 76.27 98.0484 75.3527 98.0484 73.518L98.0324 66.27L99.3924 66.046V73.566C99.3924 74.8994 99.0511 75.8754 98.3684 76.494C97.6858 77.1234 96.6618 77.438 95.2964 77.438ZM105.182 73.998C102.942 73.998 101.822 72.9314 101.822 70.798L101.806 62.526L103.166 62.318V70.478C103.166 71.8647 103.832 72.558 105.166 72.558C105.272 72.558 105.326 72.606 105.326 72.702L105.342 73.838C105.342 73.9447 105.288 73.998 105.182 73.998ZM114.204 72.558C114.31 72.558 114.364 72.606 114.364 72.702V73.838C114.364 73.9447 114.31 73.998 114.204 73.998H110.332C109.276 73.998 108.39 73.7367 107.676 73.214C106.844 73.7367 106.012 73.998 105.18 73.998C105.073 73.998 105.02 73.9447 105.02 73.838V72.702C105.02 72.606 105.073 72.558 105.18 72.558C105.734 72.558 106.262 72.4407 106.764 72.206C106.38 71.5767 106.188 70.8247 106.188 69.95C106.188 68.8834 106.529 67.998 107.212 67.294C107.894 66.59 108.764 66.238 109.82 66.238C110.812 66.238 111.66 66.5954 112.364 67.31C113.068 68.014 113.42 68.846 113.42 69.806C113.42 70.638 113.233 71.5554 112.86 72.558H114.204ZM110.22 72.558H111.548C111.921 71.5127 112.108 70.67 112.108 70.03C112.108 69.3794 111.894 68.8087 111.468 68.318C111.052 67.8274 110.529 67.582 109.9 67.582C109.185 67.582 108.614 67.806 108.188 68.254C107.761 68.6914 107.548 69.2727 107.548 69.998C107.548 70.766 107.788 71.3847 108.268 71.854C108.748 72.3234 109.398 72.558 110.22 72.558ZM126.067 66.254L127.411 66.03V70.91C127.411 71.8914 127.144 72.6487 126.611 73.182C126.078 73.7154 125.288 73.982 124.243 73.982C123.39 73.982 122.499 73.6994 121.571 73.134C121.006 73.6994 120.195 73.982 119.139 73.982C118.371 73.982 117.576 73.7047 116.755 73.15C116.168 73.7154 115.32 73.998 114.211 73.998C114.104 73.998 114.051 73.9447 114.051 73.838V72.702C114.051 72.606 114.104 72.558 114.211 72.558C115.555 72.558 116.227 71.8914 116.227 70.558L116.211 67.966L117.571 67.758V70.926C117.571 71.374 117.507 71.7847 117.379 72.158C117.998 72.414 118.552 72.542 119.043 72.542C120.387 72.542 121.059 71.8754 121.059 70.542L121.043 67.95L122.403 67.742V70.91C122.403 71.3794 122.334 71.79 122.195 72.142C122.856 72.4087 123.475 72.542 124.051 72.542C124.702 72.542 125.198 72.3767 125.539 72.046C125.891 71.7047 126.067 71.2034 126.067 70.542V66.254ZM136.339 63.63L135.171 64.782L134.003 63.63L135.171 62.478L136.339 63.63ZM138.883 63.63L137.715 64.782L136.531 63.63L137.715 62.478L138.883 63.63ZM141.523 72.558C141.63 72.558 141.683 72.606 141.683 72.702V73.838C141.683 73.9447 141.63 73.998 141.523 73.998C140.542 73.998 139.817 73.7687 139.347 73.31C138.27 73.8647 137.305 74.142 136.451 74.142C135.374 74.142 134.489 73.774 133.795 73.038C133.113 72.302 132.771 71.39 132.771 70.302C132.771 69.1927 133.118 68.2487 133.811 67.47C134.505 66.6914 135.385 66.302 136.451 66.302C137.102 66.302 137.817 66.4514 138.595 66.75V65.758L139.939 65.534L139.955 70.766C139.955 71.406 140.078 71.8647 140.323 72.142C140.569 72.4194 140.969 72.558 141.523 72.558ZM136.451 72.766C137.166 72.7767 137.934 72.5954 138.755 72.222C138.649 71.8594 138.595 71.4167 138.595 70.894V68.11C137.731 67.822 137.033 67.678 136.499 67.678C135.785 67.678 135.198 67.9287 134.739 68.43C134.291 68.9314 134.067 69.55 134.067 70.286C134.067 70.99 134.286 71.5767 134.723 72.046C135.171 72.5154 135.747 72.7554 136.451 72.766ZM146.355 67.23C147.529 67.23 148.462 67.534 149.155 68.142C149.859 68.7394 150.211 69.55 150.211 70.574C150.211 71.63 149.881 72.4674 149.219 73.086C148.569 73.694 147.694 73.998 146.595 73.998H141.523C141.417 73.998 141.363 73.9447 141.363 73.838V72.702C141.363 72.606 141.417 72.558 141.523 72.558H146.483C147.219 72.558 147.795 72.382 148.211 72.03C148.638 71.678 148.851 71.1874 148.851 70.558C148.851 69.9287 148.638 69.4327 148.211 69.07C147.795 68.6967 147.225 68.51 146.499 68.51H142.643L141.907 67.214L146.691 61.55L148.003 62.238L143.507 67.23H146.355ZM156.388 72.558C156.495 72.558 156.548 72.606 156.548 72.702V73.838C156.548 73.9447 156.495 73.998 156.388 73.998C155.567 73.998 154.964 73.7154 154.58 73.15V73.566C154.58 74.8994 154.239 75.8754 153.556 76.494C152.873 77.1234 151.849 77.438 150.484 77.438L150.356 76.27C152.276 76.27 153.236 75.3527 153.236 73.518L153.22 66.27L154.58 66.046V71.038C154.655 72.0514 155.257 72.558 156.388 72.558ZM164.654 62.318L163.822 63.15L162.974 62.318L163.806 61.47L164.654 62.318ZM163.646 64.27L162.494 65.438L161.31 64.27L162.478 63.118L163.646 64.27ZM165.134 65.438L163.95 64.27L165.134 63.118L166.302 64.27L165.134 65.438ZM171.422 72.558C171.529 72.558 171.582 72.606 171.582 72.702V73.838C171.582 73.9447 171.529 73.998 171.422 73.998C170.537 73.998 169.71 73.6727 168.942 73.022C168.398 73.662 167.561 73.982 166.43 73.982C165.577 73.982 164.686 73.6994 163.758 73.134C163.193 73.6994 162.382 73.982 161.326 73.982C160.558 73.982 159.764 73.7047 158.942 73.15C158.356 73.7154 157.508 73.998 156.398 73.998C156.292 73.998 156.238 73.9447 156.238 73.838V72.702C156.238 72.606 156.292 72.558 156.398 72.558C157.742 72.558 158.414 71.8914 158.414 70.558L158.398 67.966L159.758 67.758V70.926C159.758 71.374 159.694 71.7847 159.566 72.158C160.185 72.414 160.74 72.542 161.23 72.542C162.574 72.542 163.246 71.8754 163.246 70.542L163.23 67.95L164.59 67.742V70.91C164.59 71.3794 164.521 71.79 164.382 72.142C165.044 72.4087 165.662 72.542 166.238 72.542C166.889 72.542 167.385 72.3767 167.726 72.046C168.078 71.7047 168.254 71.2034 168.254 70.542V66.254L169.598 66.03V70.91C169.598 71.262 169.556 71.6087 169.47 71.95C170.089 72.3554 170.74 72.558 171.422 72.558ZM171.43 73.998C171.323 73.998 171.27 73.9447 171.27 73.838V72.702C171.27 72.606 171.328 72.558 171.446 72.558C172.779 72.558 173.446 71.8647 173.446 70.478L173.462 62.526L174.806 62.318V70.798C174.806 72.9314 173.68 73.998 171.43 73.998ZM177.572 73.998V62.526L178.932 62.318V73.998H177.572ZM195.062 72.558C195.169 72.558 195.222 72.606 195.222 72.702V73.838C195.222 73.9447 195.169 73.998 195.062 73.998H191.222C190.209 73.998 189.35 73.758 188.646 73.278C187.942 72.798 187.473 72.1207 187.238 71.246C186.427 71.3954 186.022 71.9714 186.022 72.974V78.11L184.678 78.318L184.662 72.798C184.662 71.0167 185.467 70.0247 187.078 69.822C187.099 68.7874 187.446 67.934 188.118 67.262C188.801 66.5794 189.665 66.238 190.71 66.238C191.691 66.238 192.523 66.5954 193.206 67.31C193.899 68.014 194.246 68.846 194.246 69.806C194.246 70.574 194.049 71.4914 193.654 72.558H195.062ZM191.11 72.558H192.454C192.827 71.5554 193.014 70.7127 193.014 70.03C193.014 69.3794 192.801 68.8087 192.374 68.318C191.947 67.8274 191.419 67.582 190.79 67.582C190.075 67.582 189.505 67.806 189.078 68.254C188.651 68.6914 188.438 69.2727 188.438 69.998C188.438 70.766 188.678 71.3847 189.158 71.854C189.638 72.3234 190.289 72.558 191.11 72.558ZM206.926 66.254L208.27 66.03V70.91C208.27 71.8914 208.004 72.6487 207.47 73.182C206.937 73.7154 206.148 73.982 205.102 73.982C204.249 73.982 203.358 73.6994 202.43 73.134C201.865 73.6994 201.054 73.982 199.998 73.982C199.23 73.982 198.436 73.7047 197.614 73.15C197.028 73.7154 196.18 73.998 195.07 73.998C194.964 73.998 194.91 73.9447 194.91 73.838V72.702C194.91 72.606 194.964 72.558 195.07 72.558C196.414 72.558 197.086 71.8914 197.086 70.558L197.07 67.966L198.43 67.758V70.926C198.43 71.374 198.366 71.7847 198.238 72.158C198.857 72.414 199.412 72.542 199.902 72.542C201.246 72.542 201.918 71.8754 201.918 70.542L201.902 67.95L203.262 67.742V70.91C203.262 71.3794 203.193 71.79 203.054 72.142C203.716 72.4087 204.334 72.542 204.91 72.542C205.561 72.542 206.057 72.3767 206.398 72.046C206.75 71.7047 206.926 71.2034 206.926 70.542V66.254ZM210.603 73.998V62.526L211.963 62.318V73.998H210.603Z" fill="#62748E"/>
<defs>
<linearGradient id="paint0_linear_4136_756" x1="77.5747" y1="38.8422" x2="64.208" y2="21.4887" gradientUnits="userSpaceOnUse">
<stop stop-color="#000B31"/>
<stop offset="0.344" stop-color="#2375B1"/>
<stop offset="0.957" stop-color="#0CAFDE"/>
<stop offset="1" stop-color="#1B75BB"/>
</linearGradient>
<linearGradient id="paint1_linear_4136_756" x1="80.5768" y1="31.5991" x2="62.6239" y2="53.7565" gradientUnits="userSpaceOnUse">
<stop stop-color="#F3B51B"/>
<stop offset="0.118" stop-color="#E19C1C"/>
<stop offset="0.296" stop-color="#F3B51B"/>
</linearGradient>
<linearGradient id="paint2_linear_4136_756" x1="56.6295" y1="27.0798" x2="69.3126" y2="14.416" gradientUnits="userSpaceOnUse">
<stop stop-color="#00579F"/>
<stop offset="1" stop-color="#39D4FF"/>
</linearGradient>
</defs>
</svg>
