<svg width="138" height="31" viewBox="0 0 138 31" fill="none" xmlns="http://www.w3.org/2000/svg">
<path fill-rule="evenodd" clip-rule="evenodd" d="M14.1772 15.3017C14.2291 15.3305 14.2839 15.3538 14.3406 15.3712C17.3023 17.0117 15.7173 19.4031 13.5759 20.8076L13.5481 20.8214H13.5343C14.7434 17.6653 3.91313 16.8728 2.07812 13.912C2.09201 13.9398 2.1059 13.9536 2.11979 13.9814C2.06423 12.702 2.82897 11.6456 4.10759 10.7559C1.79953 13.8147 10.562 13.8286 14.1732 15.3025" fill="url(#paint0_linear_4145_404)"/>
<path fill-rule="evenodd" clip-rule="evenodd" d="M14.3343 15.373C20.8965 17.2775 23.4407 22.5889 15.8777 24.9247C10.4854 26.5792 1.78014 25.8561 1.1543 31C-1.7371 26.915 2.41986 24.9109 7.49432 23.187C14.8907 21.5603 18.2274 17.5275 14.3343 15.373Z" fill="url(#paint1_linear_4145_404)"/>
<path fill-rule="evenodd" clip-rule="evenodd" d="M18.1295 0.636079C23.9548 0.6083 22.8845 6.00302 18.4906 6.55859C12.8459 7.54553 1.89055 9.32499 2.11278 13.9934C-2.97556 7.3756 12.832 0.839516 18.1262 0.632812" fill="url(#paint2_linear_4145_404)"/>
<path d="M38.8484 19.2057C38.843 19.6917 38.7388 20.1716 38.5421 20.6161C38.3455 21.0606 38.0605 21.4605 37.7046 21.7915C37.2421 22.2242 36.6852 22.5431 36.0779 22.7229C35.5012 22.8988 34.9014 22.9877 34.2984 22.9868H34.2846C33.5951 22.9927 32.9094 22.8848 32.2551 22.6673C31.5722 22.4471 30.9523 22.0657 30.4479 21.5554C29.7352 20.8391 29.3354 19.8697 29.3359 18.8593V18.7342C29.3383 18.6522 29.3574 18.5716 29.392 18.4972C29.4266 18.4228 29.4759 18.3563 29.5371 18.3016C29.5983 18.2469 29.6699 18.2053 29.7477 18.1793C29.8255 18.1532 29.9078 18.1433 29.9895 18.1501C30.1556 18.1607 30.3113 18.2342 30.425 18.3557C30.5387 18.4771 30.6018 18.6373 30.6015 18.8037V18.8854C30.6071 19.5775 30.8813 20.2404 31.3662 20.7343C31.7458 21.1055 32.2012 21.39 32.7012 21.5685C33.2242 21.7493 33.7745 21.8386 34.3279 21.8323H34.3418C34.8131 21.8411 35.2826 21.7707 35.7307 21.624C36.166 21.4943 36.5656 21.2659 36.8982 20.9565C37.3647 20.5025 37.6343 19.8835 37.649 19.2326V19.191C37.6472 19.0269 37.7106 18.8689 37.8252 18.7516C37.9399 18.6343 38.0965 18.5674 38.2605 18.5655C38.4246 18.5637 38.5826 18.6271 38.6999 18.7418C38.8172 18.8565 38.8841 19.013 38.886 19.1771V19.2326L38.8484 19.2057ZM36.3459 10.6834C35.7587 10.2759 35.0589 10.062 34.3442 10.0715H34.3025C33.9288 10.067 33.5571 10.1281 33.2045 10.252C32.8649 10.3684 32.5526 10.5531 32.287 10.7945C31.9653 11.1183 31.7725 11.5481 31.7445 12.0037C31.7421 12.0857 31.723 12.1664 31.6884 12.2407C31.6538 12.3151 31.6045 12.3817 31.5433 12.4364C31.4822 12.491 31.4105 12.5327 31.3327 12.5587C31.2549 12.5848 31.1726 12.5947 31.0909 12.5879C31.0093 12.5844 30.9292 12.5645 30.8553 12.5296C30.7815 12.4946 30.7154 12.4452 30.6609 12.3843C30.6065 12.3234 30.5648 12.2522 30.5383 12.1749C30.5118 12.0976 30.5011 12.0158 30.5067 11.9343C30.5471 11.1831 30.8582 10.472 31.3826 9.9326C31.7691 9.54004 32.2398 9.24052 32.7592 9.05675C33.2338 8.90193 33.7307 8.82683 34.2298 8.83452H34.2715C35.2422 8.82245 36.1916 9.11948 36.9824 9.6826C37.4081 10.002 37.7599 10.4096 38.0137 10.8774C38.2675 11.3453 38.4173 11.8624 38.453 12.3934C38.4622 12.5575 38.4059 12.7184 38.2964 12.8409C38.1869 12.9634 38.0333 13.0374 37.8692 13.0466C37.7052 13.0558 37.5442 12.9995 37.4217 12.89C37.2992 12.7806 37.2252 12.6269 37.216 12.4629C37.1915 12.1083 37.0906 11.7632 36.9202 11.4513C36.7499 11.1394 36.5141 10.8679 36.2291 10.6556H36.3402L36.3459 10.6834ZM32.5362 13.8951C33.0889 14.4223 33.7545 14.8168 34.4823 15.0487C35.5004 15.3203 36.4742 15.7369 37.3737 16.2857C37.5841 16.4295 37.7797 16.5936 37.9578 16.7759C38.0612 16.8944 38.1139 17.0488 38.1046 17.2057C38.0954 17.3627 38.025 17.5098 37.9085 17.6154C37.792 17.721 37.6386 17.7767 37.4815 17.7705C37.3244 17.7643 37.176 17.6967 37.0681 17.5823C36.9401 17.4592 36.8053 17.3433 36.6645 17.235C35.8407 16.7748 34.9624 16.4199 34.0501 16.1786C33.147 15.8828 32.324 15.3833 31.6448 14.7187C31.4368 14.4993 31.2547 14.2567 31.1023 13.9956C31.0566 13.929 31.0246 13.8539 31.0085 13.7747C30.9923 13.6956 30.9921 13.614 31.0081 13.5348C31.024 13.4556 31.0556 13.3803 31.1012 13.3136C31.1467 13.2468 31.2051 13.1899 31.273 13.1461C31.341 13.1024 31.4169 13.0727 31.4965 13.0589C31.5762 13.045 31.6578 13.0473 31.7365 13.0656C31.8152 13.0838 31.8894 13.1177 31.9548 13.1652C32.0201 13.2127 32.0753 13.2728 32.117 13.342C32.2446 13.5308 32.389 13.7077 32.5484 13.8706V13.8984L32.5362 13.8951Z" fill="#00579F"/>
<path d="M42.5027 23.0009C42.4219 23.0025 42.3415 22.9878 42.2665 22.9577C42.1915 22.9275 42.1234 22.8825 42.0663 22.8254C42.0091 22.7682 41.9641 22.7001 41.9339 22.6251C41.9038 22.5501 41.8891 22.4697 41.8908 22.3889V9.43112C41.8908 9.2686 41.9553 9.11274 42.0702 8.99783C42.1851 8.88291 42.341 8.81836 42.5035 8.81836C42.666 8.81836 42.8219 8.88291 42.9368 8.99783C43.0517 9.11274 43.1163 9.2686 43.1163 9.43112V22.3889C43.1168 22.4696 43.1013 22.5495 43.0706 22.6241C43.04 22.6987 42.9948 22.7665 42.9377 22.8234C42.8806 22.8804 42.8127 22.9254 42.738 22.9559C42.6634 22.9863 42.5834 23.0016 42.5027 23.0009ZM43.9733 12.2539C44.1175 12.1862 44.2823 12.1773 44.4329 12.2292C44.5835 12.281 44.7079 12.3896 44.7797 12.5317L49.6458 22.1528C49.7159 22.2966 49.726 22.4623 49.6739 22.6135C49.6219 22.7647 49.5118 22.8891 49.3681 22.9592C49.2243 23.0293 49.0585 23.0394 48.9073 22.9873C48.7561 22.9352 48.6318 22.8252 48.5617 22.6814L43.6955 13.0603C43.659 12.9891 43.6374 12.9112 43.6318 12.8314C43.6263 12.7515 43.6369 12.6714 43.6632 12.5958C43.6895 12.5202 43.7308 12.4507 43.7846 12.3915C43.8385 12.3324 43.9038 12.2847 43.9766 12.2514L43.9733 12.2539ZM56.2358 8.88944C56.3087 8.92603 56.3735 8.97688 56.4265 9.03894C56.4794 9.10101 56.5193 9.17304 56.5439 9.2508C56.5685 9.32856 56.5773 9.41047 56.5697 9.49168C56.5621 9.57289 56.5383 9.65175 56.4998 9.72361L51.0911 20.1372C51.0535 20.2093 51.0022 20.2733 50.9399 20.3256C50.8776 20.3778 50.8057 20.4173 50.7281 20.4417C50.6506 20.4661 50.569 20.475 50.488 20.4679C50.407 20.4608 50.3282 20.4379 50.2561 20.4003C50.184 20.3628 50.12 20.3114 50.0678 20.2491C50.0156 20.1868 49.9761 20.1148 49.9517 20.0373C49.9272 19.9598 49.9183 19.8782 49.9254 19.7972C49.9325 19.7162 49.9555 19.6374 49.993 19.5653L55.4017 9.15172C55.479 9.00712 55.6099 8.89864 55.7664 8.8496C55.9228 8.80056 56.0923 8.81485 56.2383 8.88944H56.2358ZM55.9581 23.0009C55.8772 23.0025 55.7969 22.9878 55.7219 22.9577C55.6469 22.9275 55.5788 22.8825 55.5216 22.8254C55.4645 22.7682 55.4194 22.7001 55.3893 22.6251C55.3591 22.5501 55.3444 22.4697 55.3461 22.3889V13.352C55.3461 13.1894 55.4107 13.0336 55.5256 12.9187C55.6405 12.8038 55.7963 12.7392 55.9589 12.7392C56.1214 12.7392 56.2772 12.8038 56.3921 12.9187C56.5071 13.0336 56.5716 13.1894 56.5716 13.352V22.3889C56.5745 22.47 56.5606 22.5508 56.5309 22.6262C56.5012 22.7017 56.4563 22.7703 56.399 22.8277C56.3417 22.8851 56.2732 22.93 56.1978 22.9598C56.1223 22.9896 56.0416 23.0036 55.9605 23.0009H55.9581Z" fill="#00579F"/>
<path d="M63.9815 11.3649C64.1287 11.4316 64.2436 11.5539 64.3008 11.705C64.3581 11.8561 64.3532 12.0238 64.2871 12.1713L59.7829 22.6682C59.7165 22.8157 59.5943 22.9307 59.4431 22.988C59.2918 23.0453 59.124 23.0402 58.9766 22.9738C58.8291 22.9074 58.7141 22.7851 58.6568 22.6339C58.5995 22.4826 58.6046 22.3148 58.671 22.1674L63.1645 11.6843C63.2315 11.5345 63.3547 11.417 63.5076 11.3572C63.6605 11.2974 63.8307 11.3002 63.9815 11.3649ZM66.9988 17.8299C67.0004 17.9107 66.9858 17.991 66.9556 18.066C66.9255 18.141 66.8804 18.2091 66.8233 18.2663C66.7661 18.3235 66.698 18.3685 66.623 18.3986C66.548 18.4288 66.4677 18.4435 66.3868 18.4418H63.1474C62.9849 18.4418 62.829 18.3773 62.7141 18.2624C62.5992 18.1474 62.5346 17.9916 62.5346 17.8291C62.5346 17.6666 62.5992 17.5107 62.7141 17.3958C62.829 17.2809 62.9849 17.2163 63.1474 17.2163H66.3868C66.4676 17.2146 66.5478 17.2293 66.6228 17.2594C66.6977 17.2895 66.7658 17.3345 66.823 17.3915C66.8801 17.4486 66.9252 17.5167 66.9554 17.5916C66.9856 17.6665 67.0003 17.7467 66.9988 17.8274V17.8299ZM70.5994 22.977C70.4519 23.0431 70.2842 23.048 70.1331 22.9908C69.9819 22.9335 69.8597 22.8187 69.793 22.6715L64.2454 9.71369C64.179 9.56623 64.1739 9.39844 64.2312 9.24721C64.2885 9.09599 64.4036 8.97371 64.551 8.9073C64.6985 8.84088 64.8663 8.83578 65.0175 8.89309C65.1687 8.95039 65.291 9.06543 65.3574 9.21288L70.9049 22.1568C70.9691 22.3062 70.9731 22.4746 70.9162 22.627C70.8593 22.7793 70.7458 22.9039 70.5994 22.9746V22.977Z" fill="#00579F"/>
<path d="M76.8566 8.84736C79.123 8.84736 80.6385 10.0843 80.6385 12.5313C80.6385 14.9643 79.0952 16.1318 76.8983 16.1318H73.7822C73.6196 16.1318 73.4638 16.0673 73.3489 15.9524C73.234 15.8375 73.1694 15.6816 73.1694 15.5191C73.1694 15.3566 73.234 15.2007 73.3489 15.0858C73.4638 14.9709 73.6196 14.9063 73.7822 14.9063H76.8966C78.9261 14.9063 79.4293 13.7527 79.4293 12.501C79.4293 11.0827 78.8035 10.0263 76.8574 10.0263H73.6596C73.4971 10.0263 73.3413 9.96174 73.2263 9.84683C73.1114 9.73191 73.0469 9.57605 73.0469 9.41354C73.0469 9.25103 73.1114 9.09519 73.2263 8.98028C73.3413 8.86536 73.4971 8.80078 73.6596 8.80078H76.8574L76.8566 8.84736ZM74.7324 16.7307C74.8441 16.6185 74.9952 16.5543 75.1536 16.5517C75.3119 16.5491 75.465 16.6084 75.5804 16.7168L81.1279 21.9857C81.1845 22.0405 81.2297 22.1059 81.2611 22.1781C81.2924 22.2504 81.3092 22.3281 81.3105 22.4069C81.3118 22.4856 81.2975 22.5638 81.2686 22.6371C81.2397 22.7103 81.1966 22.7772 81.1418 22.8338C81.087 22.8904 81.0217 22.9356 80.9494 22.9669C80.8771 22.9983 80.7994 23.0151 80.7207 23.0163C80.6419 23.0176 80.5637 23.0034 80.4904 22.9745C80.4172 22.9455 80.3504 22.9024 80.2938 22.8477L74.7462 17.5788C74.6336 17.4674 74.5688 17.3166 74.5656 17.1582C74.5624 16.9999 74.621 16.8465 74.7291 16.7307H74.7324Z" fill="#00579F"/>
<path d="M94.1419 9.44598C94.1435 9.5268 94.1288 9.60712 94.0987 9.68212C94.0685 9.75712 94.0235 9.82525 93.9663 9.88241C93.9092 9.93957 93.8411 9.98457 93.7661 10.0147C93.6911 10.0449 93.6107 10.0596 93.5299 10.0579H84.0346C83.8721 10.0579 83.7162 9.99336 83.6013 9.87845C83.4864 9.76353 83.4219 9.60767 83.4219 9.44516C83.4219 9.28264 83.4864 9.12678 83.6013 9.01187C83.7162 8.89695 83.8721 8.8324 84.0346 8.8324H93.5299C93.6112 8.82953 93.6922 8.84345 93.7679 8.87329C93.8435 8.90313 93.9122 8.94825 93.9696 9.00583C94.027 9.06341 94.0719 9.13221 94.1016 9.20794C94.1312 9.28367 94.1449 9.36472 94.1419 9.44598ZM88.7888 10.6551C88.8696 10.6535 88.95 10.6682 89.025 10.6983C89.1 10.7285 89.1681 10.7735 89.2252 10.8307C89.2824 10.8878 89.3274 10.956 89.3576 11.031C89.3877 11.106 89.4024 11.1863 89.4008 11.2671V22.403C89.4008 22.5655 89.3362 22.7213 89.2212 22.8362C89.1063 22.9511 88.9505 23.0157 88.788 23.0157C88.6255 23.0157 88.4696 22.9511 88.3547 22.8362C88.2397 22.7213 88.1752 22.5655 88.1752 22.403V11.2671C88.1736 11.1861 88.1883 11.1057 88.2185 11.0306C88.2488 10.9554 88.2939 10.8873 88.3513 10.8301C88.4086 10.7729 88.4769 10.7279 88.5521 10.6979C88.6273 10.6678 88.7078 10.6532 88.7888 10.6551Z" fill="#00579F"/>
<path d="M102.457 8.83411C102.538 8.83244 102.618 8.84711 102.693 8.87727C102.768 8.90743 102.837 8.95246 102.894 9.00962C102.951 9.06678 102.996 9.13491 103.026 9.20991C103.056 9.2849 103.071 9.36523 103.069 9.44605V22.4038C103.069 22.5663 103.005 22.7222 102.89 22.8371C102.775 22.952 102.619 23.0166 102.457 23.0166C102.294 23.0166 102.138 22.952 102.023 22.8371C101.908 22.7222 101.844 22.5663 101.844 22.4038V9.44605C101.843 9.3654 101.859 9.28545 101.889 9.21085C101.92 9.13626 101.965 9.06849 102.022 9.01154C102.079 8.95458 102.147 8.90956 102.222 8.87909C102.297 8.84863 102.377 8.83335 102.457 8.83411ZM103.876 22.403C103.874 22.3222 103.889 22.2419 103.919 22.1669C103.949 22.0919 103.994 22.0238 104.051 21.9666C104.108 21.9094 104.176 21.8644 104.251 21.8343C104.326 21.8041 104.407 21.7894 104.488 21.7911H110.577C110.739 21.7911 110.895 21.8556 111.01 21.9705C111.125 22.0855 111.19 22.2413 111.19 22.4038C111.19 22.5663 111.125 22.7222 111.01 22.8371C110.895 22.952 110.739 23.0166 110.577 23.0166H104.488C104.407 23.0172 104.327 23.0018 104.252 22.9712C104.177 22.9406 104.11 22.8954 104.053 22.8383C103.996 22.7812 103.95 22.7133 103.92 22.6385C103.889 22.5638 103.875 22.4838 103.876 22.403Z" fill="#00579F"/>
<path d="M113.754 8.83415C113.835 8.83248 113.915 8.84715 113.99 8.87731C114.065 8.90747 114.134 8.95249 114.191 9.00965C114.248 9.06681 114.293 9.13494 114.323 9.20994C114.353 9.28494 114.368 9.36526 114.366 9.44608V22.4039C114.366 22.5664 114.302 22.7222 114.187 22.8372C114.072 22.9521 113.916 23.0166 113.754 23.0166C113.591 23.0166 113.435 22.9521 113.32 22.8372C113.205 22.7222 113.141 22.5664 113.141 22.4039V9.44608C113.139 9.36512 113.154 9.28465 113.184 9.20954C113.214 9.13443 113.26 9.06624 113.317 9.00905C113.374 8.95187 113.443 8.9069 113.518 8.87683C113.593 8.84677 113.673 8.83226 113.754 8.83415Z" fill="#00579F"/>
<path d="M118.418 8.83381C118.499 8.83214 118.58 8.8468 118.655 8.87696C118.73 8.90713 118.798 8.95215 118.855 9.00931C118.912 9.06647 118.957 9.1346 118.987 9.2096C119.017 9.2846 119.032 9.36492 119.03 9.44574V22.4035C119.03 22.566 118.966 22.7219 118.851 22.8368C118.736 22.9517 118.58 23.0163 118.418 23.0163C118.255 23.0163 118.099 22.9517 117.984 22.8368C117.869 22.7219 117.805 22.566 117.805 22.4035V9.44574C117.803 9.36478 117.818 9.28431 117.848 9.2092C117.878 9.13409 117.924 9.06589 117.981 9.00871C118.038 8.95153 118.107 8.90655 118.182 8.87649C118.257 8.84643 118.337 8.83191 118.418 8.83381ZM126.857 9.44574C126.859 9.52656 126.844 9.60688 126.814 9.68188C126.784 9.75688 126.739 9.82501 126.682 9.88217C126.625 9.93933 126.556 9.98433 126.481 10.0145C126.406 10.0447 126.326 10.0593 126.245 10.0577H120.156C119.994 10.0577 119.838 9.99312 119.723 9.87821C119.608 9.76329 119.543 9.60743 119.543 9.44492C119.543 9.2824 119.608 9.12654 119.723 9.01163C119.838 8.89671 119.994 8.83216 120.156 8.83216H126.245C126.326 8.83048 126.407 8.84523 126.482 8.87549C126.557 8.90576 126.625 8.9509 126.682 9.00824C126.74 9.06557 126.785 9.13391 126.815 9.2091C126.845 9.28429 126.859 9.36479 126.857 9.44574ZM119.544 15.4377C119.543 15.3569 119.557 15.2765 119.587 15.2015C119.618 15.1265 119.663 15.0584 119.72 15.0013C119.777 14.9441 119.845 14.8991 119.92 14.8689C119.995 14.8388 120.075 14.8241 120.156 14.8258H125.05C125.213 14.8258 125.368 14.8903 125.483 15.0052C125.598 15.1201 125.663 15.276 125.663 15.4385C125.663 15.601 125.598 15.7569 125.483 15.8718C125.368 15.9867 125.213 16.0513 125.05 16.0513H120.156C120.076 16.0518 119.996 16.0363 119.921 16.0056C119.846 15.975 119.779 15.9298 119.722 15.8727C119.665 15.8156 119.62 15.7477 119.589 15.673C119.559 15.5983 119.543 15.5183 119.544 15.4377Z" fill="#00579F"/>
<path d="M130.094 22.4035C130.092 22.3227 130.107 22.2424 130.137 22.1674C130.167 22.0924 130.212 22.0243 130.269 21.9671C130.327 21.91 130.395 21.8649 130.47 21.8348C130.545 21.8046 130.625 21.7899 130.706 21.7916H137.185C137.347 21.7916 137.503 21.8561 137.618 21.9711C137.733 22.086 137.798 22.2418 137.798 22.4043C137.798 22.5669 137.733 22.7227 137.618 22.8376C137.503 22.9525 137.347 23.0171 137.185 23.0171H130.706C130.625 23.0176 130.545 23.0021 130.471 22.9715C130.396 22.9408 130.328 22.8956 130.271 22.8385C130.214 22.7814 130.169 22.7135 130.139 22.6389C130.108 22.5642 130.093 22.4842 130.094 22.4035ZM137.768 9.44574C137.77 9.52656 137.755 9.60688 137.725 9.68188C137.695 9.75688 137.65 9.82501 137.593 9.88217C137.535 9.93933 137.467 9.98433 137.392 10.0145C137.317 10.0447 137.237 10.0593 137.156 10.0577H130.733C130.57 10.0577 130.414 9.99312 130.3 9.87821C130.185 9.76329 130.12 9.60743 130.12 9.44492C130.12 9.2824 130.185 9.12654 130.3 9.01163C130.414 8.89671 130.57 8.83216 130.733 8.83216H137.156C137.237 8.83048 137.318 8.84526 137.393 8.87557C137.468 8.90588 137.536 8.95111 137.593 9.00854C137.651 9.06596 137.696 9.13439 137.726 9.20967C137.756 9.28496 137.77 9.36554 137.768 9.44656V9.44574ZM130.136 15.4377C130.134 15.3569 130.149 15.2766 130.179 15.2016C130.209 15.1266 130.254 15.0584 130.311 15.0013C130.368 14.9441 130.436 14.8991 130.511 14.8689C130.586 14.8388 130.667 14.8241 130.748 14.8258H135.976C136.139 14.8258 136.295 14.8903 136.41 15.0052C136.525 15.1201 136.589 15.276 136.589 15.4385C136.589 15.601 136.525 15.7569 136.41 15.8718C136.295 15.9867 136.139 16.0513 135.976 16.0513H130.748C130.667 16.0518 130.587 16.0363 130.513 16.0057C130.438 15.9751 130.37 15.93 130.313 15.873C130.256 15.8159 130.211 15.7482 130.181 15.6736C130.15 15.599 130.135 15.5183 130.136 15.4377Z" fill="#00579F"/>
<defs>
<linearGradient id="paint0_linear_4145_404" x1="19.246" y1="22.3111" x2="6.56088" y2="5.84256" gradientUnits="userSpaceOnUse">
<stop stop-color="#000B31"/>
<stop offset="0.344" stop-color="#2375B1"/>
<stop offset="0.957" stop-color="#0CAFDE"/>
<stop offset="1" stop-color="#1B75BB"/>
</linearGradient>
<linearGradient id="paint1_linear_4145_404" x1="22.0957" y1="15.4356" x2="5.05828" y2="36.4631" gradientUnits="userSpaceOnUse">
<stop stop-color="#F3B51B"/>
<stop offset="0.118" stop-color="#E19C1C"/>
<stop offset="0.296" stop-color="#F3B51B"/>
</linearGradient>
<linearGradient id="paint2_linear_4145_404" x1="-0.628272" y1="11.1476" x2="11.408" y2="-0.870431" gradientUnits="userSpaceOnUse">
<stop stop-color="#00579F"/>
<stop offset="1" stop-color="#39D4FF"/>
</linearGradient>
</defs>
</svg>
